<?xml version="1.0" encoding="UTF-8"?>
<svg width="14px" height="14px" viewBox="0 0 14 14" version="1.1" xmlns="http://www.w3.org/2000/svg" xmlns:xlink="http://www.w3.org/1999/xlink">
    <!-- Generator: Sketch 53.2 (72643) - https://sketchapp.com -->
    <title>ic_search_search_bar</title>
    <desc>Created with Sketch.</desc>
    <g id="Page-1" stroke="none" stroke-width="1" fill="none" fill-rule="evenodd">
        <g id="Marketplace-Browse" transform="translate(-77.000000, -79.000000)" fill="#4C596E">
            <g id="nav-bar">
                <g id="search-bar-inactive" transform="translate(62.000000, 71.000000)">
                    <path d="M28.863408,20.7036517 L25.149381,17.0169159 C25.2541076,16.8764781 25.3274304,16.777849 25.3785858,16.7085421 L25.3848382,16.7001243 C25.4266151,16.6458292 25.4669711,16.5912535 25.5061902,16.5355554 L25.5097427,16.5307853 L25.5096006,16.5307853 C26.9645465,14.4661683 26.6424093,11.5461579 24.7181123,9.64639035 C23.6428534,8.58461939 22.213201,8 20.6927477,8 C19.1722944,8 17.7429262,8.58461939 16.6675252,9.64625005 C15.5922663,10.7078807 15,12.1194132 15,13.6208763 C15,15.1221991 15.5921242,16.5338718 16.6675252,17.5953622 C17.7398,18.6541869 19.1659,19.237263 20.6829429,19.237263 L20.6829429,19.237263 C21.5923729,19.237263 22.4985347,19.0199423 23.3092063,18.6060649 C23.4002914,18.5554175 23.6704205,18.4005291 23.8872627,18.2274021 L27.6592658,21.8661563 C27.6818594,21.8884635 27.8036378,22 27.9806925,22 C28.0582782,22 28.1742305,21.9774121 28.2863462,21.869804 L28.4747687,21.6902233 C28.6187144,21.5534333 28.7700493,21.4094881 28.8784704,21.3025815 C29.0892024,21.0943801 28.9870336,20.8325851 28.863408,20.7036517 L28.863408,20.7036517 Z M20.6664595,9.5125466 C22.9582231,9.5125466 24.8225546,11.3533892 24.8225546,13.6161061 C24.8225546,15.8785425 22.9582231,17.7195254 20.6664595,17.7195254 C18.3746958,17.7195254 16.5102222,15.8785425 16.5102222,13.6161061 C16.5102222,11.3533892 18.3746958,9.5125466 20.6664595,9.5125466 L20.6664595,9.5125466 Z" id="ic_search_search_bar"></path>
                </g>
            </g>
        </g>
    </g>
</svg>